<?xml version="1.0" encoding="UTF-8"?>
<svg width="600" height="400" viewBox="0 0 600 400" fill="none" xmlns="http://www.w3.org/2000/svg">
    <!-- Background -->
    <rect width="600" height="400" fill="#f8f9fa"/>
    
    <!-- Shelves -->
    <rect x="100" y="100" width="400" height="250" fill="#2c3e50" opacity="0.1"/>
    <rect x="120" y="150" width="360" height="40" fill="#3498db" opacity="0.2"/>
    <rect x="120" y="220" width="360" height="40" fill="#3498db" opacity="0.2"/>
    <rect x="120" y="290" width="360" height="40" fill="#3498db" opacity="0.2"/>
    
    <!-- Items on shelves -->
    <!-- First shelf -->
    <rect x="140" y="155" width="30" height="30" fill="#e74c3c"/>
    <rect x="180" y="155" width="30" height="30" fill="#2ecc71"/>
    <rect x="220" y="155" width="30" height="30" fill="#f1c40f"/>
    <rect x="260" y="155" width="30" height="30" fill="#e74c3c"/>
    <rect x="300" y="155" width="30" height="30" fill="#2ecc71"/>
    
    <!-- Second shelf -->
    <rect x="140" y="225" width="30" height="30" fill="#f1c40f"/>
    <rect x="180" y="225" width="30" height="30" fill="#e74c3c"/>
    <rect x="220" y="225" width="30" height="30" fill="#2ecc71"/>
    <rect x="260" y="225" width="30" height="30" fill="#f1c40f"/>
    <rect x="300" y="225" width="30" height="30" fill="#e74c3c"/>
    
    <!-- Third shelf -->
    <rect x="140" y="295" width="30" height="30" fill="#2ecc71"/>
    <rect x="180" y="295" width="30" height="30" fill="#f1c40f"/>
    <rect x="220" y="295" width="30" height="30" fill="#e74c3c"/>
    <rect x="260" y="295" width="30" height="30" fill="#2ecc71"/>
    <rect x="300" y="295" width="30" height="30" fill="#f1c40f"/>
    
    <!-- Title -->
    <text x="300" y="70" font-family="Arial" font-size="24" fill="#2c3e50" text-anchor="middle">
        Stock Management System
    </text>
</svg> 